HIERARCHY
ROOT Hips
{
	OFFSET -3.958830 18.904000 13.208200
	CHANNELS 6 Xposition Yposition Zposition Zrotation Yrotation Xrotation 
	JOINT LHipJoint
	{
		OFFSET 0.000000 0.000000 0.000000
		CHANNELS 3 Zrotation Yrotation Xrotation
		JOINT LeftUpLeg
		{
			OFFSET 1.800000 -1.400000 0.085000
			CHANNELS 3 Zrotation Yrotation Xrotation
			JOINT LeftLeg
			{
				OFFSET 2.215000 -6.000000 0.000000
				CHANNELS 3 Zrotation Yrotation Xrotation
				JOINT LeftFoot
				{
					OFFSET 2.500000 -6.900000 0.000000
					CHANNELS 3 Zrotation Yrotation Xrotation
					JOINT LeftToeBase
					{
						OFFSET 0.200000 -0.500000 1.950000
						CHANNELS 3 Zrotation Yrotation Xrotation
						End Site
						{
							OFFSET 0.000000 0.000000 0.000000
						}
					}
				}
			}
		}
	}
	JOINT RHipJoint
	{
		OFFSET 0.000000 0.000000 0.000000
		CHANNELS 3 Zrotation Yrotation Xrotation
		JOINT RightUpLeg
		{
			OFFSET -1.800000 -1.400000 0.085000
			CHANNELS 3 Zrotation Yrotation Xrotation
			JOINT RightLeg
			{
				OFFSET -2.215000 -6.000000 0.000000
				CHANNELS 3 Zrotation Yrotation Xrotation
				JOINT RightFoot
				{
					OFFSET -2.500000 -6.900000 0.000000
					CHANNELS 3 Zrotation Yrotation Xrotation
					JOINT RightToeBase
					{
						OFFSET -0.200000 -0.500000 1.950000
						CHANNELS 3 Zrotation Yrotation Xrotation
						End Site
						{
							OFFSET 0.000000 0.000000 0.000000
						}
					}
				}
			}
		}
	}
	JOINT LowerBack
	{
		OFFSET 0.000000 0.000000 0.000000
		CHANNELS 3 Zrotation Yrotation Xrotation
		JOINT Spine
		{
			OFFSET -0.087000 1.940000 -0.288900
			CHANNELS 3 Zrotation Yrotation Xrotation
			JOINT Spine1
			{
				OFFSET 0.000000 1.950000 0.060000
				CHANNELS 3 Zrotation Yrotation Xrotation
				JOINT Neck
				{
					OFFSET 0.000000 0.000000 0.000000
					CHANNELS 3 Zrotation Yrotation Xrotation
					JOINT Neck1
					{
						OFFSET 0.000000 1.600000 0.340000
						CHANNELS 3 Zrotation Yrotation Xrotation
						JOINT Head
						{
							OFFSET 0.000000 1.667000 -0.240000
							CHANNELS 3 Zrotation Yrotation Xrotation
							End Site
							{
								OFFSET 0.000000 0.000000 0.000000
							}
						}
					}
				}
				JOINT LeftShoulder
				{
					OFFSET 0.000000 0.000000 0.000000
					CHANNELS 3 Zrotation Yrotation Xrotation
					JOINT LeftArm
					{
						OFFSET 2.700000 1.550000 -0.730000
						CHANNELS 3 Zrotation Yrotation Xrotation
						JOINT LeftForeArm
						{
							OFFSET 5.450000 0.000000 0.000000
							CHANNELS 3 Zrotation Yrotation Xrotation
							JOINT LeftHand
							{
								OFFSET 3.450000 0.000000 0.000000
								CHANNELS 3 Zrotation Yrotation Xrotation
								JOINT LeftHandIndex1
								{
									OFFSET 0.750000 0.000000 0.000000
									CHANNELS 3 Zrotation Yrotation Xrotation
									End Site
									{
										OFFSET 0.000000 0.000000 0.000000
									}
								}
							}
						}
					}
				}
				JOINT RightShoulder
				{
					OFFSET 0.000000 0.000000 0.000000
					CHANNELS 3 Zrotation Yrotation Xrotation
					JOINT RightArm
					{
						OFFSET -2.700000 1.550000 -0.730000
						CHANNELS 3 Zrotation Yrotation Xrotation
						JOINT RightForeArm
						{
							OFFSET -5.450000 0.000000 0.000000
							CHANNELS 3 Zrotation Yrotation Xrotation
							JOINT RightHand
							{
								OFFSET -3.450000 0.000000 0.000000
								CHANNELS 3 Zrotation Yrotation Xrotation
								JOINT RightHandIndex1
								{
									OFFSET -0.750000 0.000000 0.000000
									CHANNELS 3 Zrotation Yrotation Xrotation
									End Site
									{
										OFFSET 0.000000 0.000000 0.000000
									}
								}
							}
						}
					}
				}
			}
		}
	}
}
MOTION
Frames: 10
Frame Time: 0.016667
0.354930 14.330270 -4.654390 -9.213659 26.668103 56.984416 -16.222215 6.948130 7.775985 17.525946 -38.997747 -87.574233 -33.644450 21.234195 52.199138 2.174509 12.468066 1.000677 0.610980 0.064300 0.906040 18.735024 -3.908724 5.901934 -26.305251 -5.353514 -83.583937 -23.989134 -7.377732 104.056926 -2.957745 -14.492525 0.008713 -0.261260 0.338890 0.460090 -2.295938 -4.131437 -11.959753 17.628127 -10.698483 54.426099 -0.568147 -0.937657 -0.033236 7.779549 10.034245 -12.554297 17.898498 -5.812337 39.052249 -12.316230 5.059470 -2.455160 -7.780922 -45.602364 4.758897 8.450156 -32.893321 -5.315931 10.045630 -2.015251 -1.583039 -4.223677 2.815675 0.326970 0.255230 0.045150 0.296480 -8.287272 41.466295 -4.762725 -10.515497 45.338036 -11.523708 -91.111841 63.993999 -56.766871 1.668788 0.234245 0.128420 0.155410 -0.288700 -0.179380 
0.327810 14.253040 -4.623060 -9.203123 29.489160 54.819133 -16.210000 7.051720 7.611739 17.411656 -39.875898 -84.037784 -38.218689 20.972762 48.539597 2.243291 12.055818 1.145115 0.669190 0.169960 0.899250 18.742292 -3.762262 6.030021 -30.215958 -9.918836 -80.327296 -13.269474 -21.701152 103.478102 -3.049871 -15.029626 -0.124322 -0.218540 0.336880 0.494350 -2.242032 -4.358418 -11.984060 19.048168 -12.627585 54.558059 -0.518827 -1.425295 1.625581 8.427418 9.820685 -12.649527 17.684690 -5.133111 39.119964 -12.113790 5.640720 -1.696660 -7.208699 -45.694170 4.742146 8.267219 -32.295016 -5.468339 9.838122 -2.776203 -1.497550 -4.206645 2.932856 0.246000 0.279220 0.059240 0.345890 -10.123877 41.439151 -4.586353 -13.968834 45.870809 -10.261910 -98.093151 63.444370 -63.163495 1.719233 0.267426 0.198450 0.108430 -0.347620 -0.128620 
0.305760 14.165860 -4.586110 -11.360788 30.359770 51.486836 -16.156617 7.214979 7.393985 15.485398 -39.369850 -78.678133 -41.661066 20.278147 44.584988 2.183199 11.614982 1.301968 0.706600 0.273920 0.827270 18.758305 -3.797853 6.113044 -32.046067 -11.499773 -76.992101 -3.569044 -29.776011 97.198455 -3.137768 -15.645114 -0.244624 -0.140890 0.446920 0.499250 -2.267160 -4.370826 -11.885006 19.359554 -12.766995 54.667769 0.230765 -1.679064 5.212633 8.580672 8.655381 -12.224984 15.344472 -3.989224 38.426302 -10.722780 4.712000 -1.801380 -5.499167 -44.583521 3.782910 9.138568 -32.570914 -5.154280 8.855981 -1.803193 -1.426051 -4.296675 2.924040 0.158030 0.347660 0.016440 0.422300 -11.781742 41.008829 -2.828798 -19.895083 45.906880 -10.088397 -107.454361 58.404815 -70.409893 1.939964 -0.409682 0.209820 0.178200 -0.352060 -0.054880 
0.281280 14.096640 -4.554410 -15.235831 30.816375 48.077616 -16.114056 7.331712 7.349279 14.607245 -38.037633 -75.369790 -40.644502 19.536564 43.831980 2.138771 11.296881 1.369297 0.717470 0.296520 0.803720 18.760128 -3.955577 6.054532 -31.704200 -10.803598 -74.769341 1.981104 -32.239335 91.713958 -3.105450 -15.682893 -0.271259 -0.151550 0.429050 0.507330 -2.313424 -4.301661 -11.796598 20.360271 -13.066578 55.661921 -0.443640 -0.915855 5.471059 8.736068 8.143576 -12.168938 14.454410 -3.829885 39.038973 -9.913760 4.343430 -0.889730 -6.735824 -44.424308 4.193516 9.797153 -32.289326 -5.416017 7.238743 -1.585126 -1.304343 -4.270443 2.964015 0.123630 0.337410 0.007190 0.419860 -10.889264 41.623756 -2.795266 -21.429193 47.879763 -8.744210 -108.859758 60.604833 -72.476161 1.921323 -0.214968 0.257340 0.123500 -0.361330 -0.031740 
0.244340 14.059270 -4.531060 -17.693833 30.596022 45.790409 -16.114076 7.415532 7.344801 13.406123 -37.601328 -73.542215 -38.057819 19.432021 45.243625 2.013563 11.325663 1.289042 0.774510 0.336920 0.847480 18.738151 -4.058382 5.963529 -31.324852 -9.857141 -73.088210 3.186031 -32.986894 91.472746 -3.183855 -15.833252 -0.359279 -0.110310 0.363660 0.548700 -2.286784 -4.349236 -11.742031 20.191085 -12.334725 56.675227 -0.447157 -0.284107 5.358186 8.983142 7.985483 -11.676177 14.471318 -3.287017 39.991493 -9.656200 4.575320 -3.239130 -6.708044 -44.139818 4.292599 9.392504 -32.451538 -5.219512 6.748569 -0.967892 -1.400347 -4.262374 2.952377 0.206690 0.297900 0.057770 0.391080 -11.243458 41.610351 -3.778072 -19.242548 49.695245 -6.205423 -111.716844 61.692055 -77.795881 1.958011 -0.152289 0.260930 0.090820 -0.351850 -0.072850 
0.223620 14.024690 -4.522060 -20.605037 28.431498 44.166115 -16.112166 7.440233 7.385896 13.433138 -36.216940 -73.895262 -35.915515 19.846697 46.873528 1.915522 11.538091 1.145770 0.854550 0.403090 0.913430 18.721935 -4.187927 5.879901 -30.400399 -7.955043 -73.176491 3.205404 -30.755250 89.179843 -3.069163 -15.478414 -0.363131 -0.047740 0.295600 0.597820 -2.291774 -4.192795 -11.681265 18.967682 -10.066609 56.756381 -0.329761 0.835072 5.422317 9.395477 7.598324 -10.708971 14.290513 -2.411194 40.655768 -10.022570 5.237390 -5.076520 -7.208519 -43.415139 4.756620 8.286834 -32.902261 -4.881173 7.076325 -0.699951 -1.525806 -4.277631 2.994135 0.252940 0.283280 0.084810 0.352860 -11.228244 41.800826 -5.605778 -14.387391 51.699457 -2.355391 -113.109724 63.995171 -83.256408 1.990449 0.042141 0.278160 0.031720 -0.350800 -0.120220 
0.209810 14.030940 -4.530560 -23.452796 25.360855 43.553298 -16.122494 7.458646 7.523338 14.768251 -34.153956 -75.903499 -33.869627 20.444541 48.736389 1.845750 11.807871 0.957010 0.924430 0.452310 1.019350 18.687263 -4.408760 5.710053 -27.957847 -4.986966 -74.006794 1.548229 -25.433965 84.598089 -2.764731 -14.394806 -0.223905 -0.020620 0.163480 0.626020 -2.310480 -3.914131 -11.616980 17.510821 -7.172053 57.150407 -1.036349 2.947357 3.732331 9.680706 7.545409 -10.187646 14.749960 -1.915041 42.172087 -10.406030 5.904850 -7.886740 -7.224408 -43.982773 5.870053 6.564961 -32.448274 -4.554568 8.004826 -0.875553 -1.640015 -4.236664 3.021794 0.328980 0.210000 0.150780 0.273970 -11.679678 42.804067 -9.309008 -4.468358 50.982045 2.729558 -121.725424 69.203316 -108.698957 2.462488 -0.872121 0.310720 -0.036610 -0.349010 -0.183170 
0.191240 14.068800 -4.537000 -25.538028 22.713388 43.291083 -16.110026 7.440587 7.658027 15.549802 -32.221000 -77.770709 -30.294581 21.462723 52.858256 1.814786 12.455551 0.660887 1.012660 0.584060 1.038060 18.679493 -4.661921 5.504653 -25.979821 -2.365756 -73.000388 1.900764 -22.108628 78.704061 -2.499362 -13.404362 -0.052290 0.065340 0.117830 0.660950 -2.396955 -3.498199 -11.487864 15.398406 -4.400955 56.924221 -0.634541 4.202803 4.830999 9.013765 6.563898 -9.347084 12.953933 -0.309054 41.335445 -9.268370 5.945170 -11.569650 -5.359132 -43.132349 5.777249 6.838430 -32.421485 -4.148681 8.834586 -0.929052 -1.753966 -4.258017 3.047608 0.362270 0.190000 0.185660 0.243840 -12.079741 42.834744 -10.001830 -1.224402 50.049094 2.969052 -120.663633 69.716303 -110.140319 2.464650 -0.815128 0.347150 -0.052830 -0.327380 -0.192540 
0.190970 14.164450 -4.520990 -27.046899 19.956580 42.339397 -16.132061 7.613439 7.752538 14.045288 -30.614106 -77.569247 -22.859094 21.657480 59.749712 1.869645 13.191979 0.388825 1.011570 0.582310 1.065250 18.616695 -4.969159 5.182926 -25.265260 -0.121649 -68.570517 5.003723 -20.941592 72.249084 -2.304477 -12.478389 0.145883 0.035790 0.060870 0.677520 -2.387589 -3.340967 -11.290311 12.398691 -1.717298 59.060113 -0.627599 5.479588 5.938874 8.137260 5.893074 -9.775817 11.455419 0.711502 40.331535 -9.138260 6.706990 -15.018630 -3.513882 -42.890914 5.766786 9.503684 -30.946318 -4.734690 9.424983 -1.173046 -1.785597 -4.234179 3.020829 0.428560 0.128230 0.250580 0.204270 -12.384721 43.724350 -8.575426 -2.602475 47.703704 -0.667002 -112.744047 65.967308 -90.616791 2.228319 0.512503 0.367470 -0.058570 -0.303390 -0.208670 
0.183140 14.299320 -4.532100 -27.434529 18.247196 43.637081 -16.210493 7.675012 7.985142 13.187682 -29.851001 -79.754053 -13.411088 20.437908 68.653416 1.955263 13.946636 0.142810 0.965320 0.496820 1.065530 18.540898 -5.095353 4.884306 -23.920044 1.429207 -65.709157 6.920911 -19.475277 66.576081 -2.093209 -11.490997 0.402900 -0.048050 -0.008290 0.667220 -2.263437 -3.351887 -11.240285 9.061019 0.876408 60.117665 -0.230699 7.109911 4.169819 7.166944 6.275437 -10.717976 11.942390 0.246198 41.144333 -8.648760 7.118700 -16.789750 -2.358231 -43.604699 6.105112 10.300026 -29.824429 -4.898227 10.057990 -1.034500 -1.776623 -4.164010 2.995238 0.527460 0.048670 0.295590 0.165490 -11.696402 44.845967 -8.489884 0.593166 44.890371 -4.343609 -105.951085 68.528911 -80.454691 1.973922 1.623600 0.359690 -0.091990 -0.285340 -0.244270 
